<svg width="44" height="44" viewBox="0 0 44 44" fill="none" xmlns="http://www.w3.org/2000/svg">
<circle cx="22" cy="22" r="22" fill="white"/>
<path d="M35 22.5764C35 15.6306 29.4036 10 22.5001 10C15.5964 10 10 15.6306 10 22.5764C10 28.8537 14.5711 34.0565 20.5469 35V26.2118H17.3731V22.5764H20.5469V19.8056C20.5469 16.6537 22.4131 14.9127 25.2683 14.9127C26.6359 14.9127 28.0664 15.1583 28.0664 15.1583V18.2532H26.4903C24.9374 18.2532 24.4531 19.2227 24.4531 20.2173V22.5764H27.92L27.3657 26.2118H24.4531V35C30.429 34.0565 35 28.8537 35 22.5764Z" fill="#151E29"/>
</svg>
