<svg width="16" height="14" viewBox="0 0 16 14" fill="none" xmlns="http://www.w3.org/2000/svg">
<path d="M14.4369 0.972171C13.8744 0.49313 13.2391 0.191126 12.5308 0.066159C11.8226 -0.058808 11.1247 -0.00673842 10.4373 0.222368C9.74983 0.451474 9.14572 0.83679 8.62494 1.37831L8 2.00315L7.37506 1.37831C6.85428 0.83679 6.25017 0.451474 5.56273 0.222368C4.8753 -0.00673842 4.17745 -0.058808 3.46918 0.066159C2.76092 0.191126 2.12556 0.49313 1.56311 0.972171C0.917341 1.51369 0.469467 2.18019 0.219491 2.97165C-0.0304849 3.76311 -0.0669397 4.55977 0.110127 5.36164C0.287193 6.16352 0.667365 6.86646 1.25064 7.47046L7.28132 13.6876C7.48963 13.8959 7.72919 14 8 14C8.27081 14 8.51037 13.8959 8.71868 13.6876L14.7494 7.43922C15.3326 6.85604 15.7128 6.16352 15.8899 5.36164C16.0669 4.55977 16.0305 3.76311 15.7805 2.97165C15.5305 2.18019 15.0827 1.51369 14.4369 0.972171Z" fill="white"/>
</svg>
