<svg width="44" height="44" viewBox="0 0 44 44" fill="none" xmlns="http://www.w3.org/2000/svg">
<circle cx="22" cy="22" r="22" fill="white"/>
<path d="M22.5798 10.4211C19.2769 10.4211 18.8645 10.4363 17.5677 10.4941C16.2729 10.5549 15.3914 10.7585 14.6163 11.0594C13.817 11.3695 13.1382 11.7859 12.4624 12.4616C11.7866 13.1374 11.3692 13.8152 11.0602 14.6156C10.7593 15.3907 10.5546 16.2721 10.4948 17.5669C10.434 18.8638 10.4219 19.2761 10.4219 22.579C10.4219 25.8819 10.4371 26.2943 10.4948 27.5911C10.5556 28.8849 10.7593 29.7674 11.0602 30.5425C11.3702 31.3408 11.7866 32.0207 12.4624 32.6964C13.1382 33.3712 13.816 33.7896 14.6163 34.0986C15.3924 34.3985 16.2739 34.6042 17.5677 34.664C18.8645 34.7248 19.2769 34.7369 22.5798 34.7369C25.8827 34.7369 26.295 34.7217 27.5919 34.664C28.8857 34.6032 29.7681 34.3985 30.5432 34.0986C31.3416 33.7886 32.0214 33.3712 32.6972 32.6964C33.3719 32.0207 33.7904 31.3439 34.0994 30.5425C34.3993 29.7674 34.6049 28.8849 34.6647 27.5911C34.7255 26.2943 34.7377 25.8819 34.7377 22.579C34.7377 19.2761 34.7225 18.8638 34.6647 17.5669C34.6039 16.2731 34.3993 15.3897 34.0994 14.6156C33.7893 13.8162 33.3719 13.1374 32.6972 12.4616C32.0214 11.7859 31.3446 11.3684 30.5432 11.0594C29.7681 10.7585 28.8857 10.5539 27.5919 10.4941C26.295 10.4333 25.8827 10.4211 22.5798 10.4211ZM22.5798 12.6096C25.8249 12.6096 26.2119 12.6258 27.4936 12.6815C28.679 12.7372 29.3223 12.9338 29.7499 13.102C30.3193 13.3218 30.7225 13.5852 31.1501 14.0097C31.5746 14.4353 31.838 14.8395 32.0579 15.4089C32.224 15.8365 32.4226 16.4798 32.4763 17.6652C32.534 18.9479 32.5472 19.3329 32.5472 22.579C32.5472 25.8252 32.532 26.2112 32.4722 27.4929C32.4104 28.6782 32.2129 29.3216 32.0457 29.7492C31.8188 30.3186 31.5604 30.7218 31.1349 31.1493C30.7104 31.5739 30.3 31.8373 29.7367 32.0571C29.3112 32.2233 28.6577 32.4219 27.4723 32.4756C26.1815 32.5333 25.8016 32.5465 22.5494 32.5465C19.2961 32.5465 18.9162 32.5313 17.6264 32.4715C16.44 32.4097 15.7865 32.2121 15.361 32.045C14.7845 31.818 14.3884 31.5597 13.9639 31.1341C13.5373 30.7096 13.2648 30.2993 13.052 29.736C12.8849 29.3105 12.6883 28.657 12.6265 27.4716C12.5809 26.195 12.5647 25.8009 12.5647 22.5638C12.5647 19.3258 12.5809 18.9307 12.6265 17.6389C12.6883 16.4535 12.8849 15.801 13.052 15.3755C13.2648 14.798 13.5373 14.4029 13.9639 13.9763C14.3884 13.5518 14.7845 13.2782 15.361 13.0665C15.7865 12.8983 16.4258 12.7007 17.6112 12.64C18.903 12.5944 19.283 12.5792 22.5342 12.5792L22.5798 12.6096ZM22.5798 16.336C19.13 16.336 16.3367 19.1323 16.3367 22.579C16.3367 26.0288 19.133 28.8221 22.5798 28.8221C26.0296 28.8221 28.8228 26.0258 28.8228 22.579C28.8228 19.1292 26.0265 16.336 22.5798 16.336ZM22.5798 26.6317C20.3407 26.6317 18.5271 24.8181 18.5271 22.579C18.5271 20.34 20.3407 18.5264 22.5798 18.5264C24.8188 18.5264 26.6324 20.34 26.6324 22.579C26.6324 24.8181 24.8188 26.6317 22.5798 26.6317ZM30.529 16.0898C30.529 16.8952 29.8745 17.5487 29.0701 17.5487C28.2646 17.5487 27.6111 16.8942 27.6111 16.0898C27.6111 15.2853 28.2656 14.6318 29.0701 14.6318C29.8735 14.6308 30.529 15.2853 30.529 16.0898Z" fill="#151E29"/>
</svg>
