<svg width="17" height="22" viewBox="0 0 17 22" fill="none" xmlns="http://www.w3.org/2000/svg">
<path d="M8.5 0.799805C12.7718 0.799805 16.2001 4.14965 16.2002 8.20703C16.2002 11.3033 14.4263 14.456 12.5 16.9434C10.6017 19.3944 8.66128 21.0653 8.50391 21.1992C8.50325 21.1994 8.50195 21.2002 8.5 21.2002C8.49801 21.2002 8.4967 21.1994 8.49609 21.1992C8.49646 21.1994 8.49717 21.2004 8.49805 21.2012C8.3554 21.0799 6.40641 19.405 4.5 16.9434C2.57368 14.456 0.799805 11.3033 0.799805 8.20703C0.799876 4.14965 4.22824 0.799805 8.5 0.799805ZM8.5 5.10352C6.77486 5.10352 5.33894 6.47646 5.33887 8.20703C5.33887 9.93766 6.77482 11.3115 8.5 11.3115C10.2252 11.3115 11.6611 9.93766 11.6611 8.20703C11.6611 6.47646 10.2251 5.10352 8.5 5.10352Z" stroke="white" stroke-width="1.6"/>
</svg>
