<svg width="11" height="12" viewBox="0 0 11 12" fill="none" xmlns="http://www.w3.org/2000/svg">
<path d="M5.09543 0C2.28571 0 0 2.244 0 5.00286C0 6.164 0.414286 7.29571 1.17857 8.20286L4.22114 11.5943C4.43771 11.852 4.75629 12 5.09543 12C5.43029 12 5.74543 11.8554 5.96229 11.6026L9.02343 8.18914C9.77629 7.29571 10.1906 6.164 10.1906 5.00286C10.1906 2.244 7.90486 0 5.09543 0ZM8.16086 7.43971L5.10629 10.8454C5.10286 10.8483 5.09371 10.844 5.08829 10.844C5.08657 10.844 5.08514 10.844 5.08457 10.8451L2.04114 7.45314C1.462 6.76543 1.14286 5.89514 1.14286 5.00286C1.14286 2.87457 2.916 1.14286 5.09543 1.14286C7.27486 1.14286 9.04771 2.87457 9.04771 5.00286C9.04771 5.89514 8.72886 6.76543 8.16086 7.43971Z" fill="#D95681"/>
<path d="M5.09542 3.95286C4.46514 3.95286 3.95257 4.46544 3.95257 5.09572C3.95257 5.72601 4.46514 6.23858 5.09542 6.23858C5.72571 6.23858 6.23828 5.72601 6.23828 5.09572C6.23828 4.46544 5.72571 3.95286 5.09542 3.95286Z" fill="#D95681"/>
</svg>
