<svg width="11" height="11" viewBox="0 0 11 11" fill="none" xmlns="http://www.w3.org/2000/svg">
<g clip-path="url(#clip0_3_3406)">
<path d="M9.84625 0H6.12277C5.8081 0 5.49344 0.131265 5.28367 0.341289L0.353993 5.27685C-0.117998 5.7494 -0.117998 6.48449 0.353993 6.95704L4.05125 10.6587C4.28725 10.895 4.57569 11 4.89035 11C5.20501 11 5.49344 10.895 5.72944 10.6587L10.6591 5.72315C10.8951 5.48687 11 5.19809 11 4.88305V1.18138C11 0.866348 10.8689 0.551313 10.6591 0.341289C10.4493 0.131265 10.1609 0 9.84625 0ZM9.97735 4.90931C9.97735 4.93556 9.95113 4.98807 9.92491 5.01432L5.02145 9.92363C4.96901 9.97613 4.89035 9.97613 4.81168 9.92363L1.11442 6.22196C1.06198 6.16945 1.06198 6.09069 1.11442 6.01193L6.01788 1.10263C6.0441 1.07637 6.09654 1.05012 6.12277 1.05012H9.82002C9.84625 1.05012 9.89869 1.07637 9.92491 1.10263C9.95113 1.12888 9.97735 1.15513 9.97735 1.18138V4.90931Z" fill="#D95681"/>
<path d="M7.98451 2.15271C7.4863 2.15271 7.09297 2.5465 7.09297 3.04531C7.09297 3.54412 7.4863 3.93791 7.98451 3.93791C8.48272 3.93791 8.87605 3.54412 8.87605 3.04531C8.87605 2.5465 8.4565 2.15271 7.98451 2.15271Z" fill="#D95681"/>
</g>
<defs>
<clipPath id="clip0_3_3406">
<rect width="11" height="11" fill="white"/>
</clipPath>
</defs>
</svg>
