<svg width="12" height="12" viewBox="0 0 12 12" fill="none" xmlns="http://www.w3.org/2000/svg">
<g clip-path="url(#clip0_3_3423)">
<path d="M6 0C2.63571 0 0 2.63571 0 6C0 9.36429 2.63571 12 6 12C9.36429 12 12 9.36429 12 6C12 2.63571 9.36429 0 6 0ZM6 10.8571C3.27657 10.8571 1.14286 8.72343 1.14286 6C1.14286 3.27657 3.27657 1.14286 6 1.14286C8.72343 1.14286 10.8571 3.27657 10.8571 6C10.8571 8.72343 8.72343 10.8571 6 10.8571Z" fill="#D95681"/>
<path d="M6.57143 5.7543V4.16002C6.57143 3.84459 6.31543 3.58859 6 3.58859C5.68457 3.58859 5.42857 3.84459 5.42857 4.16002V6.00002C5.42857 6.15687 5.49314 6.30687 5.60686 6.41459L8.01829 8.7003C8.12886 8.80516 8.27029 8.85716 8.41143 8.85716C8.56257 8.85716 8.714 8.79745 8.826 8.67887C9.04343 8.44973 9.03371 8.0883 8.80457 7.87116L6.57143 5.7543Z" fill="#D95681"/>
</g>
<defs>
<clipPath id="clip0_3_3423">
<rect width="12" height="12" fill="white"/>
</clipPath>
</defs>
</svg>
